<svg width="16" height="16" viewBox="0 0 16 16" fill="none" xmlns="http://www.w3.org/2000/svg">
<path d="M15.0724 7.07241H8.92759V0.927812C8.92759 0.416127 8.51234 0 8 0C7.48766 0 7.07241 0.416127 7.07241 0.927593V7.07241H0.927593C0.415471 7.07241 0 7.48853 0 8C0 8.51322 0.415471 8.92759 0.927593 8.92759H7.07241V15.0722C7.07241 15.5858 7.48766 15.9998 8 15.9998C8.51234 15.9998 8.92759 15.5852 8.92759 15.0722V8.92759H15.0724C15.585 8.92759 16 8.513 16 8C16 7.48853 15.5847 7.07241 15.0724 7.07241Z" fill="#518EF8"/>
</svg>
